<svg xmlns="http://www.w3.org/2000/svg" width="64" height="64" viewBox="0 0 64 64">
  <rect width="64" height="64" fill="transparent"/>
  <!-- Static grain (few pixels), cheap to render and repeat -->
  <g fill="#ffffff" opacity="0.18">
    <rect x="3" y="5" width="1" height="1"/>
    <rect x="11" y="9" width="1" height="1"/>
    <rect x="21" y="2" width="1" height="1"/>
    <rect x="33" y="12" width="1" height="1"/>
    <rect x="47" y="7" width="1" height="1"/>
    <rect x="59" y="15" width="1" height="1"/>
    <rect x="6" y="23" width="1" height="1"/>
    <rect x="18" y="28" width="1" height="1"/>
    <rect x="27" y="19" width="1" height="1"/>
    <rect x="41" y="27" width="1" height="1"/>
    <rect x="53" y="21" width="1" height="1"/>
    <rect x="9" y="37" width="1" height="1"/>
    <rect x="14" y="45" width="1" height="1"/>
    <rect x="25" y="39" width="1" height="1"/>
    <rect x="35" y="44" width="1" height="1"/>
    <rect x="49" y="36" width="1" height="1"/>
    <rect x="60" y="41" width="1" height="1"/>
    <rect x="4" y="56" width="1" height="1"/>
    <rect x="16" y="60" width="1" height="1"/>
    <rect x="30" y="55" width="1" height="1"/>
    <rect x="44" y="61" width="1" height="1"/>
    <rect x="57" y="58" width="1" height="1"/>
  </g>
</svg>

